<?xml version="1.0" standalone="no"?>
<!DOCTYPE svg PUBLIC "-//W3C//DTD SVG 20010904//EN"
 "http://www.w3.org/TR/2001/REC-SVG-20010904/DTD/svg10.dtd">
<svg version="1.0" xmlns="http://www.w3.org/2000/svg"
 width="19.000000pt" height="19.000000pt" viewBox="0 0 19.000000 19.000000"
 preserveAspectRatio="xMidYMid meet">

<g transform="translate(0.000000,19.000000) scale(0.100000,-0.100000)"
fill="#000000" stroke="none">
<path d="M45 178 c-48 -27 -59 -79 -26 -119 16 -19 29 -24 69 -24 34 0 56 -6
70 -18 28 -25 40 -2 14 26 -14 16 -18 32 -15 59 9 64 -56 108 -112 76z m69
-34 c30 -29 9 -84 -31 -84 -21 0 -53 29 -53 48 0 22 30 52 51 52 10 0 25 -7
33 -16z"/>
</g>
</svg>
