<?xml version="1.0" standalone="no"?>
<!DOCTYPE svg PUBLIC "-//W3C//DTD SVG 20010904//EN"
 "http://www.w3.org/TR/2001/REC-SVG-20010904/DTD/svg10.dtd">
<svg version="1.0" xmlns="http://www.w3.org/2000/svg"
 width="66.000000pt" height="56.000000pt" viewBox="0 0 66.000000 56.000000"
 preserveAspectRatio="xMidYMid meet">

<g transform="translate(0.000000,56.000000) scale(0.100000,-0.100000)"
fill="#000000" stroke="none">
<path d="M237 546 c-46 -17 -117 -63 -117 -76 0 -15 16 -12 31 7 28 33 111 63
174 62 63 -1 98 -11 153 -44 38 -23 40 -32 10 -38 -13 -2 -4 -5 20 -6 42 -1
42 -1 42 34 0 19 -4 35 -10 35 -5 0 -10 -9 -10 -20 0 -18 -4 -17 -47 10 -80
51 -168 64 -246 36z"/>
<path d="M85 383 c-14 -14 -16 -28 -11 -84 6 -60 5 -68 -12 -73 -31 -10 -62
-45 -62 -71 0 -14 5 -25 10 -25 6 0 10 11 10 25 0 18 11 32 40 51 l41 27 -7
68 c-6 62 -5 68 15 78 16 9 26 9 42 0 20 -10 21 -16 15 -80 l-7 -68 40 -26
c30 -18 41 -32 41 -50 0 -14 5 -25 10 -25 6 0 10 11 10 24 0 24 -50 76 -72 76
-6 0 -7 21 -3 60 6 48 4 66 -9 85 -20 30 -66 34 -91 8z"/>
<path d="M484 375 c-13 -19 -15 -37 -9 -85 4 -39 3 -60 -3 -60 -22 0 -72 -52
-72 -76 0 -13 5 -24 10 -24 6 0 10 11 10 25 0 18 11 32 41 50 l40 26 -7 68
c-6 64 -5 70 15 80 16 9 26 9 42 0 20 -10 21 -17 15 -79 l-6 -67 40 -27 c29
-19 40 -33 40 -51 0 -14 5 -25 10 -25 12 0 13 40 2 55 -4 6 -21 21 -39 33 -32
22 -32 24 -26 85 4 51 2 66 -11 80 -26 26 -72 22 -92 -8z"/>
<path d="M107 103 c-11 -10 -8 -61 3 -68 6 -3 10 3 10 14 0 27 1 27 56 -11 41
-30 54 -33 131 -37 61 -2 96 1 126 13 49 19 105 61 95 71 -4 4 -21 -4 -37 -18
-50 -42 -113 -60 -184 -55 -63 5 -132 33 -156 62 -12 14 -10 16 8 16 12 0 19
5 16 10 -7 11 -58 14 -68 3z"/>
</g>
</svg>
